<?xml version="1.0" standalone="no"?>
<!DOCTYPE svg PUBLIC "-//W3C//DTD SVG 20010904//EN"
 "http://www.w3.org/TR/2001/REC-SVG-20010904/DTD/svg10.dtd">
<svg version="1.0" xmlns="http://www.w3.org/2000/svg"
 width="526.000000pt" height="526.000000pt" viewBox="0 0 526.000000 526.000000"
 preserveAspectRatio="xMidYMid meet">
<metadata>
Created by potrace 1.14, written by Peter Selinger 2001-2017
</metadata>
<g transform="translate(0.000000,526.000000) scale(0.100000,-0.100000)"
fill="#000000" stroke="none">
<path d="M4180 5213 c0 -7 -4 -13 -10 -13 -5 0 -80 -34 -167 -76 -86 -42 -169
-81 -183 -87 -14 -6 -27 -11 -30 -13 -3 -1 -15 -5 -27 -9 -13 -4 -23 -11 -23
-16 0 -5 -3 -8 -7 -7 -17 3 -63 -15 -63 -25 0 -6 -3 -8 -6 -4 -3 3 -31 -5 -62
-18 -87 -35 -120 -47 -128 -45 -4 1 -10 -2 -13 -7 -6 -9 -175 -65 -198 -66 -7
0 -13 -5 -13 -10 0 -5 -6 -7 -14 -4 -8 3 -17 3 -20 -1 -4 -3 -12 -7 -19 -8
-34 -7 -61 -14 -80 -20 -12 -4 -31 -8 -42 -9 -11 -1 -36 -5 -55 -9 -19 -4 -51
-9 -70 -11 -19 -2 -35 -5 -35 -5 0 -1 -34 -3 -75 -4 -42 -1 -81 -5 -88 -10 -6
-4 -12 -3 -12 2 0 4 -15 8 -32 7 -18 0 -53 3 -78 8 -25 4 -56 10 -70 12 -47 8
-55 11 -67 18 -7 5 -13 6 -13 2 0 -3 -13 1 -29 9 -16 9 -31 13 -34 10 -3 -3
-16 0 -29 7 -12 7 -27 14 -33 15 -5 1 -48 16 -95 34 -185 70 -310 104 -416
113 -22 2 -45 6 -50 9 -18 11 -337 8 -351 -4 -7 -6 -13 -6 -13 -1 0 5 -9 9
-20 9 -11 0 -20 -3 -20 -6 0 -3 -17 -6 -38 -7 -42 -2 -90 -8 -142 -18 -19 -4
-45 -7 -57 -8 -13 -1 -23 -3 -23 -7 0 -3 -12 -6 -27 -6 -16 -1 -39 -4 -53 -7
-14 -4 -43 -11 -65 -16 -22 -6 -42 -10 -45 -10 -14 1 -7 -19 12 -31 32 -22 96
-90 128 -136 45 -63 90 -150 83 -158 -3 -3 -1 -6 6 -6 7 0 9 -4 6 -10 -3 -5
-2 -10 3 -10 6 0 13 -7 16 -16 4 -10 2 -13 -7 -7 -7 4 -6 -2 4 -17 15 -25 40
-98 45 -135 1 -11 3 -21 4 -22 3 -3 4 -7 13 -56 13 -61 22 -137 31 -244 3 -37
1 -53 -7 -53 -9 0 -9 -2 -1 -8 11 -7 15 -242 4 -242 -3 0 -6 -19 -6 -43 -3
-75 -19 -198 -38 -277 -3 -14 -8 -36 -11 -50 -5 -29 -19 -81 -33 -127 -6 -18
-8 -33 -5 -33 3 0 0 -6 -6 -13 -6 -8 -12 -22 -14 -33 -2 -10 -11 -36 -20 -58
-9 -21 -17 -44 -17 -51 0 -6 -3 -15 -7 -19 -4 -3 -8 -13 -9 -20 -1 -11 4 -11
27 -3 16 6 29 15 29 19 0 4 7 8 16 8 8 0 25 5 37 12 12 7 27 13 32 14 6 1 46
16 90 32 44 16 85 30 90 31 6 1 28 6 50 12 22 6 47 12 55 14 8 2 26 6 40 9 46
11 85 16 165 21 44 4 90 8 103 10 12 2 22 1 22 -3 0 -4 48 -8 107 -9 58 -1
113 -5 122 -9 9 -4 25 -8 36 -9 11 -1 47 -8 80 -15 73 -17 74 -17 78 -20 1 -1
11 -3 22 -5 11 -2 43 -11 70 -19 28 -8 77 -22 110 -31 33 -9 67 -19 75 -22 8
-3 17 -7 20 -8 16 -5 97 -28 105 -30 35 -8 72 -17 85 -22 8 -3 22 -7 30 -8 8
-1 53 -10 100 -19 119 -23 166 -27 315 -26 174 1 277 8 360 27 11 2 31 6 45 9
14 2 32 7 40 10 8 3 26 8 40 11 13 2 52 13 85 24 33 10 69 21 80 23 11 2 44
13 74 25 30 11 58 18 63 15 4 -3 8 0 8 7 0 7 3 10 6 6 3 -3 17 -2 30 3 14 6
35 12 47 14 12 2 40 9 62 14 22 6 60 14 85 17 24 4 48 8 51 11 4 2 27 5 53 5
25 1 46 6 46 11 0 5 7 5 17 0 9 -5 28 -7 42 -3 14 4 39 7 54 6 25 -1 27 2 22
25 -4 14 -8 30 -10 35 -1 6 -5 18 -9 27 -4 9 -9 22 -10 30 -2 7 -5 20 -8 28
-21 58 -57 210 -64 270 -4 37 -12 75 -14 75 -2 0 -10 76 -16 150 -2 33 -6 168
-9 300 -4 245 -11 406 -21 505 -4 30 -7 65 -7 78 -1 12 -4 22 -7 22 -3 0 -7
12 -8 28 -2 27 -37 164 -49 192 -3 8 -7 18 -8 23 -2 4 -4 9 -5 12 -1 3 -3 8
-5 13 -11 41 -104 231 -105 215z"/>
<path d="M789 4926 c-17 -12 -33 -46 -30 -61 3 -11 9 -78 15 -160 3 -33 5 -60
6 -60 1 0 3 -22 5 -50 2 -27 6 -79 10 -115 4 -36 8 -85 10 -110 2 -25 6 -72
10 -105 3 -33 7 -85 10 -115 5 -61 12 -128 19 -205 3 -27 8 -81 10 -119 3 -38
8 -87 11 -110 3 -22 8 -70 11 -106 7 -91 12 -147 18 -210 6 -64 16 -168 21
-223 1 -21 5 -41 9 -44 3 -3 1 -14 -5 -24 -5 -11 -6 -19 -1 -19 6 0 9 -12 9
-27 0 -26 7 -107 20 -223 2 -25 6 -66 7 -91 1 -25 6 -51 11 -59 6 -9 4 -11 -4
-5 -10 5 -11 3 -4 -11 6 -11 9 -36 9 -57 -1 -20 1 -37 4 -37 3 0 5 -26 5 -58
0 -31 2 -61 5 -67 3 -5 5 -30 6 -55 1 -25 3 -45 4 -45 1 0 3 -22 6 -50 2 -27
6 -79 9 -115 4 -36 8 -83 9 -105 2 -22 4 -40 5 -40 1 0 4 -29 7 -65 11 -148
13 -167 19 -215 3 -27 7 -75 10 -105 5 -66 11 -134 30 -335 4 -38 8 -80 9 -92
1 -12 5 -25 8 -28 3 -4 2 -19 -2 -35 -4 -16 -5 -31 -2 -35 3 -3 7 -20 9 -38 1
-18 5 -57 8 -87 2 -30 7 -82 9 -115 8 -95 16 -157 21 -166 3 -4 1 -10 -5 -14
-6 -4 -7 -12 -3 -18 4 -7 8 -25 10 -42 2 -35 10 -119 18 -190 3 -27 7 -81 10
-120 2 -38 5 -72 6 -75 3 -7 6 -31 8 -61 2 -39 42 -54 86 -33 30 14 33 19 30
52 -2 20 -6 70 -10 110 -4 40 -9 98 -11 130 -2 31 -6 73 -8 92 -6 49 -18 187
-21 236 -1 23 -4 45 -6 50 -3 5 -4 35 -4 66 0 32 -3 58 -6 58 -3 0 -7 26 -8
58 -4 107 -5 122 -11 122 -4 0 -8 54 -14 192 0 21 -3 38 -6 38 -3 0 -6 19 -7
43 -2 56 -11 172 -13 172 -1 0 -3 23 -5 50 -15 188 -24 288 -31 334 -5 40 -17
191 -18 238 -1 18 -3 33 -6 33 -3 0 -5 17 -6 38 -1 40 -11 165 -19 225 -3 20
-8 72 -11 115 -8 121 -12 167 -14 167 -1 0 -3 20 -5 45 -2 25 -6 79 -10 120
-5 41 -8 96 -9 122 -1 27 -3 48 -6 48 -3 0 -6 15 -7 33 -1 47 -18 245 -38 447
-3 25 -7 70 -9 100 -2 30 -7 87 -11 125 -4 39 -8 90 -10 115 -2 25 -4 45 -5
45 -1 0 -3 23 -5 50 -2 28 -6 73 -9 100 -6 57 -17 181 -21 240 -2 22 -4 40 -5
40 -1 0 -3 23 -5 50 -2 28 -6 77 -9 110 -3 33 -8 87 -11 120 -4 33 -8 85 -10
115 -2 30 -4 55 -5 55 -1 0 -3 8 -5 18 -5 24 -7 26 -42 36 -19 6 -35 5 -44 -3z"/>
</g>
</svg>
