<svg version="1.1" viewBox="0.0 0.0 526.0813648293963 525.4120734908137" fill="none" stroke="none" stroke-linecap="square" stroke-miterlimit="10" xmlns:xlink="http://www.w3.org/1999/xlink" xmlns="http://www.w3.org/2000/svg"><clipPath id="p.0"><path d="m0 0l526.08136 0l0 525.41205l-526.08136 0l0 -525.41205z" clip-rule="nonzero"/></clipPath><g clip-path="url(#p.0)"><path fill="#000000" fill-opacity="0.0" d="m0 0l526.08136 0l0 525.41205l-526.08136 0z" fill-rule="evenodd"/><path fill="#ff9900" d="m1.511811 262.70602l67.0609 -25.602875l-58.149563 -42.08542l71.40116 -7.372711l-45.27445 -55.70276l70.877335 11.358139l-29.315742 -65.52227l65.52227 29.315742l-11.358139 -70.87735l55.70276 45.27445l7.372711 -71.40116l42.08542 58.14956l25.60289 -67.0609l25.602905 67.0609l42.08542 -58.14956l7.372711 71.40116l55.70276 -45.27445l-11.358154 70.87735l65.52228 -29.315742l-29.315735 65.52227l70.87732 -11.358139l-45.274445 55.70276l71.40115 7.372711l-58.149536 42.08542l67.06091 25.602875l-67.06091 25.602905l58.149536 42.08542l-71.40115 7.372711l45.274445 55.70276l-70.87732 -11.358154l29.315735 65.52228l-65.52228 -29.315735l11.358154 70.87735l-55.70276 -45.274445l-7.372711 71.40115l-42.08542 -58.149567l-25.602905 67.06088l-25.60289 -67.06088l-42.08542 58.149567l-7.372711 -71.40115l-55.70276 45.274445l11.358139 -70.87735l-65.52227 29.315735l29.315742 -65.52228l-70.877335 11.358154l45.27445 -55.70276l-71.40116 -7.372711l58.149563 -42.08542z" fill-rule="evenodd"/><path stroke="#ff0000" stroke-width="4.0" stroke-linejoin="round" stroke-linecap="butt" d="m1.511811 262.70602l67.0609 -25.602875l-58.149563 -42.08542l71.40116 -7.372711l-45.27445 -55.70276l70.877335 11.358139l-29.315742 -65.52227l65.52227 29.315742l-11.358139 -70.87735l55.70276 45.27445l7.372711 -71.40116l42.08542 58.14956l25.60289 -67.0609l25.602905 67.0609l42.08542 -58.14956l7.372711 71.40116l55.70276 -45.27445l-11.358154 70.87735l65.52228 -29.315742l-29.315735 65.52227l70.87732 -11.358139l-45.274445 55.70276l71.40115 7.372711l-58.149536 42.08542l67.06091 25.602875l-67.06091 25.602905l58.149536 42.08542l-71.40115 7.372711l45.274445 55.70276l-70.87732 -11.358154l29.315735 65.52228l-65.52228 -29.315735l11.358154 70.87735l-55.70276 -45.274445l-7.372711 71.40115l-42.08542 -58.149567l-25.602905 67.06088l-25.60289 -67.06088l-42.08542 58.149567l-7.372711 -71.40115l-55.70276 45.274445l11.358139 -70.87735l-65.52227 29.315735l29.315742 -65.52228l-70.877335 11.358154l45.27445 -55.70276l-71.40116 -7.372711l58.149563 -42.08542z" fill-rule="evenodd"/></g></svg>